<?xml version="1.0" encoding="UTF-8"?>
<svg width="24px" height="24px" viewBox="0 0 24 24" version="1.1" xmlns="http://www.w3.org/2000/svg" xmlns:xlink="http://www.w3.org/1999/xlink">
    <!-- Generator: Sketch 54.1 (76490) - https://sketchapp.com -->
    <title>atomes/icones/metier/douche</title>
    <desc>Created with Sketch.</desc>
    <g id="atomes/icones/metier/douche" stroke="none" stroke-width="1" fill="none" fill-rule="evenodd">
        <rect id="Rectangle" fill="#000000" fill-rule="nonzero" x="7.28135593" y="13.3066667" width="12.6372881" height="1"></rect>
        <path d="M4,23.9466667 L4.6779661,23.9466667 L4.6779661,4.88 C4.6779661,2.56 6.60338983,0.666666667 8.96271186,0.666666667 C11.3220339,0.666666667 13.2474576,2.56 13.2474576,4.88 L13.2474576,7.68 L10.9966102,7.68 C10.4271186,7.68 9.85762712,7.89333333 9.42372881,8.29333333 C8.33898305,9.28 7.68813559,10.64 7.55254237,12.08 C7.55254237,12.16 7.57966102,12.2666667 7.63389831,12.3466667 C7.68813559,12.4266667 7.79661017,12.4533333 7.8779661,12.4533333 L19.2135593,12.4533333 C19.3220339,12.4533333 19.4033898,12.4266667 19.4576271,12.3466667 C19.5118644,12.2666667 19.5661017,12.1866667 19.5389831,12.08 C19.4847458,10.6133333 18.8338983,9.28 17.7491525,8.29333333 C17.3423729,7.89333333 16.7728814,7.68 16.2033898,7.68 L13.9525424,7.68 L13.9525424,4.88 C13.9525424,2.18666667 11.7288136,0 8.98983051,0 C6.25084746,0 4,2.18666667 4,4.88 L4,23.9466667 Z M17.2881356,8.77333333 C18.1559322,9.57333333 18.6983051,10.64 18.8881356,11.76 L8.31186441,11.76 C8.50169492,10.6133333 9.0440678,9.57333333 9.91186441,8.77333333 C10.2101695,8.50666667 10.5898305,8.34666667 10.9966102,8.34666667 L16.2033898,8.34666667 C16.6101695,8.34666667 16.9898305,8.48 17.2881356,8.77333333 Z" id="Shape" fill="#000000" fill-rule="nonzero"></path>
        <rect id="Rectangle" fill="#000000" fill-rule="nonzero" x="10.0745763" y="15.76" width="1" height="2.42666667"></rect>
        <rect id="Rectangle" fill="#000000" fill-rule="nonzero" x="16.4474576" y="15.76" width="1" height="2.42666667"></rect>
        <rect id="Rectangle" fill="#000000" fill-rule="nonzero" x="13.2745763" y="18.4" width="1" height="2.42666667"></rect>
    </g>
</svg>