<?xml version="1.0" encoding="UTF-8"?>
<svg width="24px" height="24px" viewBox="0 0 24 24" version="1.1" xmlns="http://www.w3.org/2000/svg" xmlns:xlink="http://www.w3.org/1999/xlink">
    <!-- Generator: Sketch 54.1 (76490) - https://sketchapp.com -->
    <title>atomes/icones/metier/serviette</title>
    <desc>Created with Sketch.</desc>
    <g id="atomes/icones/metier/serviette" stroke="none" stroke-width="1" fill="none" fill-rule="evenodd">
        <path d="M3.17035111,12.8160535 L6.16124837,12.8160535 L6.16124837,23.6521739 C6.16124837,23.8394649 6.31729519,24 6.4993498,24 L17.526658,24 C17.7087126,24 17.8647594,23.8394649 17.8647594,23.6521739 L17.8647594,12.8160535 L20.8556567,12.8160535 C21.1677503,12.8160535 21.4538362,12.6822742 21.6618986,12.4682274 C21.869961,12.2541806 22,11.9331104 22,11.638796 C22,11.1571906 21.6879064,10.7023411 21.2457737,10.5150502 L12.3250975,7.01003344 L12.3250975,5.48494983 C13.6514954,5.32441472 14.6657997,4.17391304 14.6657997,2.75585284 C14.6657997,1.23076923 13.4694408,0 11.9869961,0 C10.5045514,0 9.30819246,1.25752508 9.30819246,2.75585284 C9.30819246,3.13043478 9.38621586,3.47826087 9.51625488,3.82608696 L10.1144343,3.55852843 C10.0104031,3.2909699 9.95838752,3.02341137 9.95838752,2.75585284 C9.95838752,1.60535117 10.8686606,0.668896321 11.9869961,0.668896321 C13.1053316,0.668896321 14.0156047,1.60535117 14.0156047,2.75585284 C14.0156047,3.90635452 13.1053316,4.84280936 11.9869961,4.84280936 C11.8049415,4.84280936 11.6488947,5.00334448 11.6488947,5.19063545 L11.6488947,7.0367893 L2.75422627,10.5150502 C2.31209363,10.7023411 2,11.1304348 2,11.638796 C2,12.2809365 2.52015605,12.8160535 3.17035111,12.8160535 Z M17.1625488,23.3043478 L6.81144343,23.3043478 L6.81144343,14.3143813 L14.9258778,14.3143813 L14.9258778,13.6454849 L6.81144343,13.6454849 L6.81144343,12.4682274 L6.81144343,12.2006689 C6.81144343,11.7458194 7.17555267,11.3444816 7.64369311,11.3444816 L16.3823147,11.3444816 C16.8244473,11.3444816 17.2145644,11.7190635 17.2145644,12.2006689 L17.2145644,12.4682274 L17.2145644,23.3043478 L17.1625488,23.3043478 Z M2.98829649,11.1304348 L11.9869961,7.59866221 L20.9856957,11.1304348 C21.1937581,11.2107023 21.3237971,11.3979933 21.3237971,11.6120401 C21.3237971,11.7458194 21.2717815,11.8795987 21.1677503,11.9866221 C21.0897269,12.0668896 20.9856957,12.1471572 20.8036411,12.1471572 L17.8127438,12.1471572 C17.8127438,12.1471572 17.8127438,12.1204013 17.8127438,12.1204013 C17.8127438,12.0401338 17.786736,11.9598662 17.786736,11.8528428 C17.786736,11.8528428 17.786736,11.826087 17.786736,11.826087 C17.7607282,11.7458194 17.7347204,11.6655518 17.7087126,11.5852843 C17.7087126,11.5852843 17.7087126,11.5585284 17.6827048,11.5585284 C17.656697,11.4782609 17.6046814,11.3979933 17.5526658,11.3444816 C17.5526658,11.3444816 17.5526658,11.3177258 17.526658,11.3177258 C17.4746424,11.2374582 17.4226268,11.1839465 17.3706112,11.1304348 C17.3706112,11.1304348 17.3446034,11.1304348 17.3446034,11.1036789 C17.2925878,11.0501672 17.2145644,10.9966555 17.136541,10.9431438 C17.136541,10.9431438 17.1105332,10.9431438 17.1105332,10.9431438 C17.0325098,10.8896321 16.9544863,10.8628763 16.8764629,10.8093645 C16.8764629,10.8093645 16.8764629,10.8093645 16.8504551,10.8093645 C16.7724317,10.7826087 16.6944083,10.7558528 16.5903771,10.729097 C16.5903771,10.729097 16.5903771,10.729097 16.5903771,10.729097 C16.5123537,10.7023411 16.4083225,10.7023411 16.3042913,10.7023411 L7.61768531,10.7023411 C7.5136541,10.7023411 7.43563069,10.7023411 7.33159948,10.729097 C7.33159948,10.729097 7.33159948,10.729097 7.33159948,10.729097 C7.25357607,10.7558528 7.14954486,10.7826087 7.07152146,10.8093645 C7.07152146,10.8093645 7.07152146,10.8093645 7.04551365,10.8093645 C6.96749025,10.8361204 6.88946684,10.8896321 6.81144343,10.9431438 C6.81144343,10.9431438 6.78543563,10.9431438 6.78543563,10.9431438 C6.70741222,10.9966555 6.65539662,11.0501672 6.57737321,11.1036789 C6.57737321,11.1036789 6.55136541,11.1036789 6.55136541,11.1304348 C6.4993498,11.1839465 6.4473342,11.264214 6.3953186,11.3177258 C6.3953186,11.3177258 6.3953186,11.3444816 6.36931079,11.3444816 C6.31729519,11.4247492 6.29128739,11.4782609 6.23927178,11.5585284 C6.23927178,11.5585284 6.23927178,11.5852843 6.21326398,11.5852843 C6.18725618,11.6655518 6.16124837,11.7458194 6.13524057,11.826087 C6.13524057,11.826087 6.13524057,11.8528428 6.13524057,11.8528428 C6.10923277,11.9331104 6.10923277,12.0133779 6.10923277,12.1204013 C6.10923277,12.1204013 6.10923277,12.1471572 6.10923277,12.1471572 L3.17035111,12.1471572 C2.88426528,12.1471572 2.67620286,11.9063545 2.67620286,11.638796 C2.65019506,11.3979933 2.78023407,11.2107023 2.98829649,11.1304348 Z" id="Shape" fill="#000000" fill-rule="nonzero"></path>
    </g>
</svg>