<?xml version="1.0" encoding="UTF-8"?>
<svg width="24px" height="24px" viewBox="0 0 24 24" version="1.1" xmlns="http://www.w3.org/2000/svg" xmlns:xlink="http://www.w3.org/1999/xlink">
    <!-- Generator: Sketch 54.1 (76490) - https://sketchapp.com -->
    <title>atomes/icones/metier/tea</title>
    <desc>Created with Sketch.</desc>
    <g id="atomes/icones/metier/tea" stroke="none" stroke-width="1" fill="none" fill-rule="evenodd">
        <path d="M18.1428571,19.5105882 C19.5428571,19.4541176 20.6571429,19.0023529 21.4571429,18.0705882 C23.3142857,15.9811765 22.8285714,12.3952941 22.8285714,12.2258824 C22.8,12.0564706 22.6285714,11.9435294 22.4571429,11.9435294 L19.5142857,11.9435294 L19.5142857,12.6494118 L22.1428571,12.6494118 C22.2,13.5247059 22.2857143,16.0941176 20.9142857,17.6188235 C20.3428571,18.2682353 19.5428571,18.6635294 18.5428571,18.7764706 C19.1428571,17.5623529 19.4857143,16.2070588 19.4857143,14.7670588 L19.4857143,9.12 C19.4857143,8.92235294 19.3142857,8.75294118 19.1142857,8.75294118 L1.37142857,8.75294118 C1.17142857,8.75294118 1,8.92235294 1,9.12 L1,14.7670588 C1,18.5505882 3.34285714,21.8258824 6.68571429,23.2094118 L1.37142857,23.2094118 L1.37142857,23.9152941 L19.1428571,23.9152941 L19.1428571,23.2094118 L13.8,23.2094118 C15.6285714,22.4470588 17.1428571,21.1482353 18.1428571,19.5105882 Z M10.2571429,23.1811765 C5.54285714,23.1811765 1.71428571,19.3976471 1.71428571,14.7388235 L1.71428571,12.6211765 L11.3428571,12.6211765 L11.3428571,11.9435294 L1.71428571,11.9435294 L1.71428571,9.48705882 L18.7714286,9.48705882 L18.7714286,14.7670588 C18.7714286,19.3976471 14.9428571,23.1811765 10.2571429,23.1811765 Z" id="Shape" fill="#000000" fill-rule="nonzero"></path>
        <path d="M12.1428571,2.51294118 L7.77142857,2.51294118 C6.85714286,2.51294118 6.14285714,3.24705882 6.14285714,4.12235294 C6.14285714,4.99764706 6.88571429,5.73176471 7.77142857,5.73176471 L11.4857143,5.73176471 C12,5.73176471 12.4,6.12705882 12.4,6.63529412 L12.4,7.00235294 L13.1142857,7.00235294 L13.1142857,6.63529412 C13.1142857,5.73176471 12.3714286,5.02588235 11.4857143,5.02588235 L7.77142857,5.02588235 C7.25714286,5.02588235 6.85714286,4.63058824 6.85714286,4.12235294 C6.85714286,3.61411765 7.25714286,3.21882353 7.77142857,3.21882353 L12.1428571,3.21882353 C13.0285714,3.21882353 13.7714286,2.48470588 13.7714286,1.60941176 C13.7714286,0.734117647 13.0285714,-1.77635684e-15 12.1428571,-1.77635684e-15 L10.8857143,-1.77635684e-15 L10.8857143,0.705882353 L12.1428571,0.705882353 C12.6571429,0.705882353 13.0571429,1.10117647 13.0571429,1.60941176 C13.0571429,2.11764706 12.6285714,2.51294118 12.1428571,2.51294118 Z" id="Path" fill="#000000" fill-rule="nonzero"></path>
    </g>
</svg>