<?xml version="1.0" encoding="UTF-8"?>
<svg width="24px" height="24px" viewBox="0 0 24 24" version="1.1" xmlns="http://www.w3.org/2000/svg" xmlns:xlink="http://www.w3.org/1999/xlink">
    <!-- Generator: Sketch 54.1 (76490) - https://sketchapp.com -->
    <title>atomes/icones/metier/wifi</title>
    <desc>Created with Sketch.</desc>
    <g id="atomes/icones/metier/wifi" stroke="none" stroke-width="1" fill="none" fill-rule="evenodd">
        <path d="M12.0001434,19.2688438 C11.3625454,19.2688438 10.7631166,19.5147447 10.312316,19.9618372 C9.86209376,20.4077834 9.61428357,21.0019006 9.61428357,21.6344219 C9.61428357,22.2669432 9.86238292,22.8607738 10.3126052,23.3070066 C10.7639841,23.7540991 11.3628346,24 11.9998543,24 C12.6368739,24 13.2360136,23.7540991 13.6873925,23.3070066 C14.6181988,22.3847349 14.6181988,20.8841089 13.6879708,19.9618372 C13.2374594,19.5147447 12.6380306,19.2688438 12.0001434,19.2688438 Z M13.0743731,22.6982729 C12.7875263,22.9825779 12.405835,23.1393469 12.0001434,23.1393469 C11.5938735,23.1393469 11.2124713,22.9828645 10.9262029,22.6982729 C10.334003,22.1113206 10.334003,21.1560902 10.9259137,20.5688513 C11.2124713,20.2848329 11.5941627,20.1283506 12.0001434,20.1283506 C12.4064133,20.1283506 12.7881046,20.2848329 13.0743731,20.5694245 C13.666573,21.1566634 13.666573,22.1116072 13.0743731,22.6982729 Z M23.8733455,9.86643035 C24.0413476,10.0326571 24.0425042,10.3046384 23.8750805,10.4731579 C23.7041869,10.6399578 23.4231233,10.636232 23.2603262,10.475164 C20.2573987,7.49855947 16.2586039,5.85979335 12.0004326,5.85979335 C7.74197204,5.85979335 3.74317726,7.49855947 0.740538971,10.4745908 C0.658417507,10.555698 0.549404156,10.6004073 0.433740123,10.6004073 C0.31807609,10.6004073 0.208773579,10.5559846 0.126941276,10.4745908 C0.0451089728,10.3931971 2.84217094e-14,10.2854363 2.84217094e-14,10.1705106 C2.84217094e-14,10.0555849 0.0451089728,9.94753752 0.126941276,9.86643035 C3.29353334,6.72818463 7.51006566,5 12.0001434,5 C16.4905103,5 20.7070426,6.72818463 23.8733455,9.86643035 Z M12.0004326,10.5708877 C14.9868779,10.5708877 17.7914415,11.7204314 19.8976836,13.8074365 C20.0665531,13.9750962 20.0665531,14.2476507 19.8979727,14.4150238 C19.7328623,14.5780979 19.4471722,14.5775247 19.2840859,14.4150238 C17.3420868,12.4905196 14.7552607,11.4303944 12.0007217,11.4303944 C9.24589363,11.4303944 6.65935669,12.4905196 4.71677926,14.415597 C4.63379032,14.4969907 4.52506613,14.5414134 4.40998041,14.5414134 C4.29402722,14.5414134 4.18501387,14.4967041 4.10318157,14.415597 C3.93402292,14.2479373 3.93402292,13.9753828 4.10318157,13.8077231 C6.20942361,11.7204314 9.01398724,10.5708877 12.0004326,10.5708877 Z M11.9998543,15.420982 C13.6746694,15.420982 15.2488569,16.0675466 16.4332566,17.2414511 C16.5147998,17.3219851 16.5599087,17.4297458 16.5601979,17.5449581 C16.5604871,17.6601705 16.5153781,17.7682178 16.4332566,17.8496116 C16.3499785,17.9310054 16.2415435,17.9751414 16.1264578,17.9751414 C16.0107938,17.9751414 15.9023587,17.9307188 15.8205264,17.8504714 C14.7989238,16.8376348 13.4421847,16.2807753 11.9998543,16.2807753 C10.5569454,16.2807753 9.2004955,16.8376348 8.18062789,17.8487518 C8.0175416,18.0109661 7.7306948,18.0112527 7.56703019,17.8484652 C7.39844986,17.6816653 7.3981607,17.4091108 7.56703019,17.2411645 C8.75142989,16.0675466 10.3253282,15.4212686 11.9998543,15.420982 Z" id="Shape" fill="#000000" fill-rule="nonzero"></path>
    </g>
</svg>